# xmcd
#
# Track frame offsets:
#	150
#	14131
#	27408
#	39407
#	52648
#	66323
#	77638
#	91545
#	105394
#	116869
#	131156
#	141519
#	156358
#	169913
#	182404
#	195325
#	209194
#	223361
#	236400
#	249995
#
# Disc length: 3552 seconds
#
# Revision: 0
# Processed by: cddbd v1.5.2PL0 Copyright (c) Steve Scherf et al.
# Submitted via: EasyCDDAExtractor 16.0.6.1
#
DISCID=1f0dde14
DTITLE=Χορωδία - N.S.D.A.P.
DYEAR=1996
DGENRE=Ξένη πατριωτική
TTITLE0=Άνευ ερμηνευτού - Deutschland Uber Alles [ορχηστρικό]
TTITLE1=Χορωδία - Die Fahne Hoch
TTITLE2=Χορωδία - Hoch Deutschland
TTITLE3=Χορωδία - Heil Hitler Dir
TTITLE4=Άνευ ερμηνευτού - Badenweiler Marsch [ορχηστρικό]
TTITLE5=Χορωδία - Der Fuhrer Marschlied
TTITLE6=Χορωδία - Heil Fuhrer Marschlied
TTITLE7=Χορωδία - Hitlerleute
TTITLE8=Χορωδία - Hakenkreuz im weissen Feld
TTITLE9=Χορωδία - 75 Millionen-ein Schlag
TTITLE10=Χορωδία - Jugend will marschieren
TTITLE11=Χορωδία - Flieg' deutsche Fahne, flieg'
TTITLE12=Άνευ ερμηνευτού - NSKK marschiert [ορχηστρικό]
TTITLE13=Χορωδία - Adolf Huhnlein Marsch
TTITLE14=Χορωδία - Ein Mann-ein Wort
TTITLE15=Χορωδία - Wir sind die Hitlereute
TTITLE16=Χορωδία - Die Welt gehort den Fuhrenden
TTITLE17=Άνευ ερμηνευτού - O Deutschland hoch in Ehren [ορχηστρικό]
TTITLE18=Άνευ ερμηνευτού - Abschied der Gladiatoren [ορχηστρικό]
TTITLE19=Χορωδία - Wir kommen wieder!
EXTD=
EXTT0=
EXTT1=
EXTT2=
EXTT3=
EXTT4=
EXTT5=
EXTT6=
EXTT7=
EXTT8=
EXTT9=
EXTT10=
EXTT11=
EXTT12=
EXTT13=
EXTT14=
EXTT15=
EXTT16=
EXTT17=
EXTT18=
EXTT19=
PLAYORDER=
